<svg xmlns="http://www.w3.org/2000/svg" width="314.601" height="178.7" viewBox="0 0 314.601 178.7">
    <g id="undraw_factory_dy-0-a" transform="translate(0 0.002)">
        <path id="Path_60" data-name="Path 60" d="M353.269,564.69l-7.75-13.47,7.753,14.938,0,1.535q.829-.011,1.642-.07l-.632-19.717.008-.152-.014-.029-.06-1.863,8.1-14.763-8.111,13.368-.024.395-.478-14.9,6.966-15.274-7.02,12.657-.327-30.877v0l-.159,24.344-6.656-9.741,6.662,11.837.031,13.334-6.176-12.878,6.18,14.838.017,7.414-8.971-17.93,8.978,20.517Z" transform="translate(-277.559 -389.026)" fill="#e2e2e2"/>
        <path id="Path_61" data-name="Path 61" d="M540.981,564.69l-7.75-13.47,7.753,14.938,0,1.535q.829-.011,1.642-.07L542,547.906l.008-.152-.014-.029-.06-1.863,8.1-14.763-8.111,13.368-.024.395-.477-14.9,6.966-15.274-7.02,12.657-.327-30.877,0-.1v.1l-.159,24.344-6.656-9.741,6.662,11.837.031,13.333-6.176-12.878L540.92,538.2l.017,7.414-8.971-17.93,8.978,20.517Z" transform="translate(-398.769 -389.026)" fill="#e2e2e2"/>
        <path id="Path_62" data-name="Path 62" d="M169.946,596.868l-5.6-9.727,5.6,10.786,0,1.108q.6-.008,1.186-.05l-.456-14.237.006-.11-.01-.021-.043-1.345,5.851-10.661-5.857,9.653-.018.285-.345-10.757,5.03-11.03-5.069,9.139-.236-22.3v0l-.115,17.579-4.807-7.034,4.811,8.548.022,9.628-4.46-9.3,4.462,10.714.012,5.354-6.478-12.947,6.483,14.815Z" transform="translate(-160.802 -420.338)" fill="#e2e2e2"/>
        <path id="Path_63" data-name="Path 63" d="M997.518,564.69l-7.75-13.47,7.753,14.938,0,1.535q.829-.011,1.642-.07l-.632-19.717.008-.152-.014-.029-.06-1.863,8.1-14.763-8.111,13.368-.024.395-.477-14.9,6.966-15.274-7.02,12.657-.327-30.877v0l-.159,24.344-6.656-9.741,6.662,11.837.031,13.334-6.176-12.878,6.18,14.838.017,7.414-8.971-17.93,8.978,20.517Z" transform="translate(-693.564 -389.026)" fill="#e2e2e2"/>
        <rect id="Rectangle_23" data-name="Rectangle 23" width="41.805" height="1.94" transform="translate(135.588 155.326) rotate(180)" fill="#4d869c"/>
        <rect id="Rectangle_24" data-name="Rectangle 24" width="41.805" height="1.94" transform="translate(133.462 153.386) rotate(180)" fill="#4d869c"/>
        <rect id="Rectangle_25" data-name="Rectangle 25" width="41.805" height="1.94" transform="translate(135.942 151.446) rotate(180)" fill="#4d869c"/>
        <rect id="Rectangle_26" data-name="Rectangle 26" width="41.805" height="1.94" transform="translate(140.193 149.506) rotate(180)" fill="#4d869c"/>
        <rect id="Rectangle_27" data-name="Rectangle 27" width="1.451" height="11.287" transform="translate(64.27 150.28) rotate(180)" fill="#3f3d56"/>
        <path id="Path_81" data-name="Path 81" d="M0,0,1.57.048,3.495,58.8l-1.57-.048Z" transform="translate(63.36 140.322) rotate(-112.092)" fill="#3f3d56"/>
        <rect id="Rectangle_29" data-name="Rectangle 29" width="12.628" height="5.405" transform="translate(48.594 167.131) rotate(180)" fill="#3f3d56"/>
        <rect id="Rectangle_30" data-name="Rectangle 30" width="62.268" height="6.041" transform="translate(99.395 172.536) rotate(180)" fill="#3f3d56"/>
        <path id="Path_64" data-name="Path 64" d="M133.68,404.393h14.95V383.806H137.454l-3.774,10.383Z" transform="translate(-86.32 -234.878)" fill="#e2e2e2"/>
        <rect id="Rectangle_31" data-name="Rectangle 31" width="6.386" height="6.995" transform="translate(59.988 157.195) rotate(180)" fill="#fff"/>
        <path id="Path_65" data-name="Path 65" d="M137.777,394.284h4.064v-6.995H140.1Z" transform="translate(-88.965 -237.009)" fill="#fff"/>
        <rect id="Rectangle_32" data-name="Rectangle 32" width="1.451" height="3.021" transform="translate(59.698 164.19) rotate(180)" fill="#3f3d56"/>
        <path id="Path_66" data-name="Path 66" d="M0,0H.073A1.449,1.449,0,0,1,1.451,1.51h0A1.449,1.449,0,0,1,.073,3.021H0V0Z" transform="translate(51.642 157.752) rotate(180)" fill="#3f3d56"/>
        <path id="Path_67" data-name="Path 67" d="M0,0H.073A1.449,1.449,0,0,1,1.451,1.51h0A1.449,1.449,0,0,1,.073,3.021H0V0Z" transform="translate(105.637 169.516) rotate(180)" fill="#3f3d56"/>
        <path id="Path_68" data-name="Path 68" d="M257.948,635.91a6.987,6.987,0,0,0-5.582,3.043H249.53l2.758-8.414,12.846-2.775-.363,11.189h-1.24a6.986,6.986,0,0,0-5.582-3.043Z" transform="translate(-216.394 -469.437)" fill="#e2e2e2"/>
        <ellipse id="Ellipse_25" data-name="Ellipse 25" cx="6.314" cy="6.915" rx="6.314" ry="6.915" transform="translate(35.095 164.587)" fill="#3f3d56"/>
        <ellipse id="Ellipse_26" data-name="Ellipse 26" cx="3.323" cy="3.64" rx="3.323" ry="3.64" transform="translate(38.086 167.863)" fill="#e2e2e2"/>
        <ellipse id="Ellipse_27" data-name="Ellipse 27" cx="5.516" cy="6.041" rx="5.516" ry="6.041" transform="translate(92.937 166.257)" fill="#3f3d56"/>
        <ellipse id="Ellipse_28" data-name="Ellipse 28" cx="2.903" cy="3.18" rx="2.903" ry="3.18" transform="translate(95.549 169.118)" fill="#e2e2e2"/>
        <rect id="Rectangle_33" data-name="Rectangle 33" width="3.048" height="24.085" transform="translate(64.923 170.152) rotate(180)" fill="#3f3d56"/>
        <rect id="Rectangle_34" data-name="Rectangle 34" width="43.835" height="1.431" transform="translate(105.709 167.211) rotate(180)" fill="#3f3d56"/>
        <rect id="Rectangle_35" data-name="Rectangle 35" width="1.451" height="0.636" transform="translate(52.223 158.228) rotate(180)" fill="#3f3d56"/>
        <path id="Path_69" data-name="Path 69" d="M480.325,586.884a.169.169,0,0,1-.037-.124l2-20.733a.151.151,0,0,1,.144-.142h0a.151.151,0,0,1,.144.141l2.165,20.69a.169.169,0,0,1-.035.123.14.14,0,0,1-.107.054l-4.167.043h0A.14.14,0,0,1,480.325,586.884ZM482.44,567.5l-1.846,19.121,3.843-.04Z" transform="translate(-365.399 -431.569)" fill="#3f3d56"/>
        <path id="Path_70" data-name="Path 70" d="M0,0,.073,0A1.557,1.557,0,0,1,1.512,1.54h0A1.346,1.346,0,0,1,.16,2.99l-.073,0L0,0Z" transform="matrix(0.935, 0.354, -0.354, 0.935, 35.92, 161.225)" fill="#3f3d56"/>
        <rect id="Rectangle_36" data-name="Rectangle 36" width="1.451" height="23.211" transform="translate(117.829 138.197) rotate(180)" fill="#3f3d56"/>
        <ellipse id="Ellipse_29" data-name="Ellipse 29" cx="2.032" cy="2.226" rx="2.032" ry="2.226" transform="translate(61.512 137.085)" fill="#3f3d56"/>
        <rect id="Rectangle_37" data-name="Rectangle 37" width="41.805" height="1.94" transform="translate(108.308 165.803) rotate(180)" fill="#4d869c"/>
        <rect id="Rectangle_38" data-name="Rectangle 38" width="41.805" height="1.94" transform="translate(110.788 163.863) rotate(180)" fill="#4d869c"/>
        <rect id="Rectangle_39" data-name="Rectangle 39" width="41.805" height="1.94" transform="translate(109.017 162.311) rotate(180)" fill="#4d869c"/>
        <rect id="Rectangle_40" data-name="Rectangle 40" width="41.805" height="1.94" transform="translate(111.497 160.371) rotate(180)" fill="#4d869c"/>
        <path id="Path_71" data-name="Path 71" d="M528.446,339.982a5.253,5.253,0,0,1,3.627,1.48,5.064,5.064,0,0,1,2.44-.117,5.3,5.3,0,0,1,6.217-2.354,6.042,6.042,0,0,1,3.9,5.8h-21.61A5.7,5.7,0,0,1,528.446,339.982Z" transform="translate(-392.992 -292.549)" fill="#e2e2e2"/>
        <path id="Path_72" data-name="Path 72" d="M437.221,389.439a4.966,4.966,0,0,1,3.429,1.4,4.788,4.788,0,0,1,2.307-.111,5.014,5.014,0,0,1,5.878-2.226,5.712,5.712,0,0,1,3.686,5.486H432.09A5.383,5.383,0,0,1,437.221,389.439Z" transform="translate(-334.277 -322.857)" fill="#e2e2e2"/>
        <path id="Path_73" data-name="Path 73" d="M345.094,307.97a5.167,5.167,0,0,1,3.567,1.456,4.98,4.98,0,0,1,2.4-.116,5.216,5.216,0,0,1,6.115-2.316,5.943,5.943,0,0,1,3.836,5.708H339.756A5.6,5.6,0,0,1,345.094,307.97Z" transform="translate(-274.655 -272.972)" fill="#e2e2e2"/>
        <path id="Path_74" data-name="Path 74" d="M751,372.825v48.467h17.209V372.151l-3.995.156V362.39h-2.9l-.477-21.964c1.169-.834,1.992-2.816,1.992-5.131a9.179,9.179,0,0,0-.21-1.973,4.336,4.336,0,0,0,.4-4.916,3.47,3.47,0,0,0,5.2-.458,4.31,4.31,0,0,0-.419-5.693,4.126,4.126,0,0,0,2.309-4.733,3.726,3.726,0,0,0-4.019-3.068,3.929,3.929,0,0,0-3.255,4.011c0,.059,0,.118,0,.176a3.416,3.416,0,0,0-3.041.443,4.083,4.083,0,0,0-1.684,2.809,3.423,3.423,0,0,0-4.027.183,4.232,4.232,0,0,0-1.469,4.111,3.881,3.881,0,0,0,2.844,3.128c0,.029,0,.058,0,.088a20.653,20.653,0,0,0,1.3,3.273,8.874,8.874,0,0,0-.38,2.617c0,2.314.823,4.3,1.992,5.131l-.477,21.964h-2.9v10.278Zm10.746-46.28h.01c.053,0,.106,0,.159,0q.05.179.114.351a3.962,3.962,0,0,0-.282-.347Z" transform="translate(-540.203 -277.686)" fill="#e2e2e2"/>
        <rect id="Rectangle_41" data-name="Rectangle 41" width="52.241" height="66.194" transform="translate(253.562 178.106) rotate(180)" fill="#3f3d56"/>
        <rect id="Rectangle_42" data-name="Rectangle 42" width="14.085" height="13.463" transform="translate(234.484 178.106) rotate(180)" fill="#e2e2e2"/>
        <path id="Path_75" data-name="Path 75" d="M666.236,244.553c0,.049,0,.1,0,.146a34.153,34.153,0,0,0,2.171,5.455,14.78,14.78,0,0,0-.634,4.362c0,5.112,2.408,9.256,5.378,9.256s5.378-4.144,5.378-9.256a15.282,15.282,0,0,0-.35-3.288,7.227,7.227,0,0,0,.661-8.192,5.782,5.782,0,0,0,8.662-.764,7.182,7.182,0,0,0-.7-9.488,6.876,6.876,0,0,0,3.848-7.888,6.21,6.21,0,0,0-6.7-5.113,6.548,6.548,0,0,0-5.424,6.685c0,.1,0,.2.007.294a5.693,5.693,0,0,0-5.069.739,6.8,6.8,0,0,0-2.806,4.682,5.705,5.705,0,0,0-6.712.3,7.054,7.054,0,0,0-2.448,6.852,6.468,6.468,0,0,0,4.74,5.214Zm10.5-4.622c.089,0,.177,0,.264-.007q.083.3.19.584a6.6,6.6,0,0,0-.47-.578Z" transform="translate(-482.325 -219.737)" fill="#e2e2e2"/>
        <path id="Path_76" data-name="Path 76" d="M685.941,377.45h6.147l-.22-10.1v0l-.8-37.022a3.641,3.641,0,0,1-4.1,0l-.8,37.022v0Z" transform="translate(-498.194 -287.416)" fill="#4d869c"/>
        <path id="Path_77" data-name="Path 77" d="M498.141,223.4v80.781H526.82v-81.9l-6.657.26V206.01H504.8v17.128Z" transform="translate(-321.66 -126.072)" fill="#4d869c"/>
        <path id="Path_78" data-name="Path 78" d="M872.966,244.553c0,.049,0,.1,0,.146a7.038,7.038,0,0,0,1.864,4.826,6.951,6.951,0,0,0,.307.629,14.78,14.78,0,0,0-.634,4.362c0,5.112,2.408,9.256,5.378,9.256s5.378-4.144,5.378-9.256a15.286,15.286,0,0,0-.351-3.288,7.227,7.227,0,0,0,.661-8.192,5.782,5.782,0,0,0,8.662-.764,7.182,7.182,0,0,0-.7-9.488,6.876,6.876,0,0,0,3.848-7.888,6.21,6.21,0,0,0-6.7-5.113,6.547,6.547,0,0,0-5.424,6.685c0,.1,0,.2.007.294a5.693,5.693,0,0,0-5.069.739,6.8,6.8,0,0,0-2.807,4.682,5.705,5.705,0,0,0-6.712.3,7.054,7.054,0,0,0-2.448,6.852,6.468,6.468,0,0,0,4.74,5.214Zm10.5-4.622c.089,0,.177,0,.264-.007q.083.3.19.584a6.576,6.576,0,0,0-.47-.577Z" transform="translate(-615.815 -219.737)" fill="#e2e2e2"/>
        <path id="Path_79" data-name="Path 79" d="M892.674,377.452h6.146L897.8,330.331a5.564,5.564,0,0,1-4.1,0Z" transform="translate(-631.685 -287.418)" fill="#4d869c"/>
        <path id="Path_80" data-name="Path 80" d="M704.871,223.4v80.781h28.682v-81.9l-2.356.093-4.3.167V206.01H711.528v17.128Z" transform="translate(-455.149 -126.072)" fill="#4d869c"/>
        <rect id="Rectangle_43" data-name="Rectangle 43" width="7.086" height="7.761" transform="translate(242.321 127.662) rotate(180)" fill="#fff"/>
        <rect id="Rectangle_44" data-name="Rectangle 44" width="7.086" height="7.761" transform="translate(230.984 127.662) rotate(180)" fill="#fff"/>
        <rect id="Rectangle_45" data-name="Rectangle 45" width="7.086" height="7.761" transform="translate(219.647 127.662) rotate(180)" fill="#fff"/>
        <rect id="Rectangle_46" data-name="Rectangle 46" width="7.086" height="7.761" transform="translate(242.321 140.079) rotate(180)" fill="#fff"/>
        <rect id="Rectangle_47" data-name="Rectangle 47" width="7.086" height="7.761" transform="translate(230.984 140.079) rotate(180)" fill="#fff"/>
        <rect id="Rectangle_48" data-name="Rectangle 48" width="7.086" height="7.761" transform="translate(219.647 140.079) rotate(180)" fill="#fff"/>
        <rect id="Rectangle_49" data-name="Rectangle 49" width="7.086" height="7.761" transform="translate(242.321 152.496) rotate(180)" fill="#fff"/>
        <rect id="Rectangle_50" data-name="Rectangle 50" width="7.086" height="7.761" transform="translate(230.984 152.496) rotate(180)" fill="#fff"/>
        <rect id="Rectangle_51" data-name="Rectangle 51" width="7.086" height="7.761" transform="translate(219.647 152.496) rotate(180)" fill="#fff"/>
        <rect id="Rectangle_52" data-name="Rectangle 52" width="7.086" height="7.761" transform="translate(194.364 124.557) rotate(180)" fill="#fff"/>
        <rect id="Rectangle_53" data-name="Rectangle 53" width="7.086" height="7.761" transform="translate(194.364 136.975) rotate(180)" fill="#fff"/>
        <rect id="Rectangle_54" data-name="Rectangle 54" width="7.086" height="7.761" transform="translate(194.364 149.392) rotate(180)" fill="#fff"/>
        <rect id="Rectangle_55" data-name="Rectangle 55" width="7.086" height="7.761" transform="translate(194.364 161.809) rotate(180)" fill="#fff"/>
        <rect id="Rectangle_56" data-name="Rectangle 56" width="7.086" height="7.761" transform="translate(267.546 124.557) rotate(180)" fill="#fff"/>
        <rect id="Rectangle_57" data-name="Rectangle 57" width="7.086" height="7.761" transform="translate(267.546 136.975) rotate(180)" fill="#fff"/>
        <rect id="Rectangle_58" data-name="Rectangle 58" width="7.086" height="7.761" transform="translate(267.546 149.392) rotate(180)" fill="#fff"/>
        <rect id="Rectangle_59" data-name="Rectangle 59" width="7.086" height="7.761" transform="translate(267.546 161.809) rotate(180)" fill="#fff"/>
        <rect id="Rectangle_60" data-name="Rectangle 60" width="314.601" height="0.776" transform="translate(0 177.832)" fill="#3f3d56"/>
    </g>
</svg>
