<svg xmlns="http://www.w3.org/2000/svg" width="164.896" height="25.767" viewBox="0 0 164.896 25.767">
  <g id="Group_233193" data-name="Group 233193" transform="translate(0 0)">
    <g id="Group_233192" data-name="Group 233192">
      <path id="Path_183881" data-name="Path 183881" d="M273.65,580.972a.33.33,0,0,1,.372-.372h8.539q6.525,0,8.277,5.408c.1.349.194.709.28,1.082a12.629,12.629,0,0,1,.223,1.38c.063.548.1,1.207.131,1.975s.036,1.716.036,2.834-.012,2.065-.036,2.834-.069,1.43-.131,1.975a12.5,12.5,0,0,1-.223,1.38c-.086.372-.182.733-.28,1.082q-1.752,5.408-8.277,5.408h-8.539a.33.33,0,0,1-.372-.372Zm3.358,21.664a.2.2,0,0,0,.223.224h4.645a7.511,7.511,0,0,0,3.716-.8,4.6,4.6,0,0,0,2.044-2.667c.074-.223.149-.486.223-.784a7.043,7.043,0,0,0,.167-1.138c.039-.459.069-1.025.092-1.7s.036-1.5.036-2.5-.012-1.827-.036-2.5-.057-1.237-.092-1.7a7.093,7.093,0,0,0-.167-1.138c-.074-.3-.149-.56-.223-.784a4.608,4.608,0,0,0-2.044-2.667,7.51,7.51,0,0,0-3.716-.8h-4.645a.2.2,0,0,0-.223.223Z" transform="translate(-273.65 -580.6)"/>
      <path id="Path_183882" data-name="Path 183882" d="M353.126,623.069a7.976,7.976,0,0,1-4.568-1.248,6.586,6.586,0,0,1-2.592-3.6,10.054,10.054,0,0,1-.447-1.9,19.139,19.139,0,0,1-.149-2.61,22.206,22.206,0,0,1,.131-2.628,8.513,8.513,0,0,1,.429-1.883,6.493,6.493,0,0,1,2.592-3.578,7.787,7.787,0,0,1,4.419-1.231,7.7,7.7,0,0,1,4.419,1.248,6.6,6.6,0,0,1,2.592,3.561,7.78,7.78,0,0,1,.241.915c.063.31.119.664.167,1.064s.086.852.113,1.362.036,1.1.036,1.773c0,.247-.137.372-.411.372H348.8a.2.2,0,0,0-.223.224,8.2,8.2,0,0,0,.074,1.231,5.916,5.916,0,0,0,.223.933,4.309,4.309,0,0,0,1.678,2.33,5.024,5.024,0,0,0,2.834.766,6.053,6.053,0,0,0,2.723-.56,5.978,5.978,0,0,0,1.865-1.415c.2-.2.384-.223.56-.075l1.529,1.38a.341.341,0,0,1,.039.521,8.134,8.134,0,0,1-2.851,2.2A9.467,9.467,0,0,1,353.126,623.069Zm3.951-10.926a.2.2,0,0,0,.224-.224,6.35,6.35,0,0,0-.262-2,3.884,3.884,0,0,0-1.511-2.053,5.02,5.02,0,0,0-5.184,0,3.9,3.9,0,0,0-1.511,2.053,6.437,6.437,0,0,0-.262,2,.2.2,0,0,0,.223.224Z" transform="translate(-324 -597.302)"/>
      <path id="Path_183883" data-name="Path 183883" d="M419.4,622.658a.328.328,0,0,1-.369-.372v-1.567H419a4.824,4.824,0,0,1-1.94,1.677,7.337,7.337,0,0,1-3.355.67,8.083,8.083,0,0,1-2.369-.337,5.313,5.313,0,0,1-1.9-1.01,4.786,4.786,0,0,1-1.266-1.683,5.592,5.592,0,0,1-.465-2.357,4.837,4.837,0,0,1,1.844-4.189,8.568,8.568,0,0,1,5.128-1.347h4.064a.2.2,0,0,0,.223-.223v-1.3a3.453,3.453,0,0,0-.894-2.664,5.182,5.182,0,0,0-3.394-.813,7.753,7.753,0,0,0-2.536.355,7.181,7.181,0,0,0-1.791.915c-.223.173-.4.161-.521-.036l-1.007-1.716a.414.414,0,0,1,.074-.521,8.043,8.043,0,0,1,2.536-1.266,11.773,11.773,0,0,1,3.543-.486q3.8,0,5.387,1.4t1.585,4.681v11.82a.328.328,0,0,1-.369.372H419.4Zm-4.976-2.273a5.382,5.382,0,0,0,3.334-.915,3.065,3.065,0,0,0,1.2-2.592V614.9a.2.2,0,0,0-.223-.224h-3.6a6.389,6.389,0,0,0-3.409.691,2.459,2.459,0,0,0-1.049,2.22,2.419,2.419,0,0,0,.974,2.089A4.688,4.688,0,0,0,414.425,620.384Z" transform="translate(-367.759 -597.302)"/>
      <path id="Path_183884" data-name="Path 183884" d="M477.382,606.144a4.279,4.279,0,0,1-3.355-1.138,5.276,5.276,0,0,1-1.007-3.561V580.972a.33.33,0,0,1,.372-.372h2.387a.33.33,0,0,1,.372.372v20.285a2.166,2.166,0,0,0,.429,1.546,1.861,1.861,0,0,0,1.362.429h.709a.33.33,0,0,1,.372.372v2.163a.33.33,0,0,1-.372.372h-1.269Z" transform="translate(-413.616 -580.6)"/>
      <path id="Path_183885" data-name="Path 183885" d="M533.47,580.972a.33.33,0,0,1,.372-.372h8.539q6.525,0,8.277,5.408c.1.349.194.709.28,1.082a12.644,12.644,0,0,1,.223,1.38c.063.548.1,1.207.131,1.975s.039,1.716.039,2.834-.012,2.065-.039,2.834-.069,1.43-.131,1.975a12.519,12.519,0,0,1-.223,1.38c-.086.372-.182.733-.28,1.082q-1.752,5.408-8.277,5.408h-8.539a.33.33,0,0,1-.372-.372Zm3.355,21.664a.2.2,0,0,0,.224.224h4.645a7.511,7.511,0,0,0,3.716-.8,4.6,4.6,0,0,0,2.044-2.667c.074-.223.149-.486.223-.784a7.041,7.041,0,0,0,.167-1.138c.036-.459.069-1.025.092-1.7s.036-1.5.036-2.5-.012-1.827-.036-2.5-.057-1.237-.092-1.7a7.091,7.091,0,0,0-.167-1.138c-.075-.3-.149-.56-.223-.784a4.608,4.608,0,0,0-2.044-2.667,7.51,7.51,0,0,0-3.716-.8h-4.645a.2.2,0,0,0-.224.223Z" transform="translate(-456.055 -580.6)" fill="#94ce2e"/>
      <path id="Path_183886" data-name="Path 183886" d="M612.816,623.055a7.676,7.676,0,0,1-4.457-1.269,6.677,6.677,0,0,1-2.592-3.543,11.882,11.882,0,0,1-.447-1.958,18.7,18.7,0,0,1-.149-2.592,18.333,18.333,0,0,1,.149-2.574,12.1,12.1,0,0,1,.447-1.94,6.588,6.588,0,0,1,2.592-3.561,8.582,8.582,0,0,1,8.915,0,6.6,6.6,0,0,1,2.592,3.561,12.088,12.088,0,0,1,.447,1.94,18.3,18.3,0,0,1,.149,2.574,18.733,18.733,0,0,1-.149,2.592,11.876,11.876,0,0,1-.447,1.958,6.689,6.689,0,0,1-2.592,3.543A7.677,7.677,0,0,1,612.816,623.055Zm0-2.911a4.32,4.32,0,0,0,2.536-.727,3.984,3.984,0,0,0,1.493-2.071,9.064,9.064,0,0,0,.316-1.546,18.928,18.928,0,0,0,.092-2.107,19.162,19.162,0,0,0-.092-2.089,9.1,9.1,0,0,0-.316-1.529,3.964,3.964,0,0,0-1.493-2.071,4.785,4.785,0,0,0-5.071,0,3.968,3.968,0,0,0-1.493,2.071,8.807,8.807,0,0,0-.316,1.529,18.448,18.448,0,0,0-.092,2.089,18.947,18.947,0,0,0,.092,2.107,9,9,0,0,0,.316,1.546,3.963,3.963,0,0,0,1.493,2.071A4.32,4.32,0,0,0,612.816,620.144Z" transform="translate(-506.391 -597.287)" fill="#94ce2e"/>
      <path id="Path_183887" data-name="Path 183887" d="M675.016,623.055a7.677,7.677,0,0,1-4.458-1.269,6.677,6.677,0,0,1-2.592-3.543,11.876,11.876,0,0,1-.447-1.958,18.7,18.7,0,0,1-.149-2.592,18.333,18.333,0,0,1,.149-2.574,12.088,12.088,0,0,1,.447-1.94,6.588,6.588,0,0,1,2.592-3.561,8.582,8.582,0,0,1,8.915,0,6.6,6.6,0,0,1,2.592,3.561,12.1,12.1,0,0,1,.447,1.94,18.3,18.3,0,0,1,.149,2.574,18.733,18.733,0,0,1-.149,2.592,11.882,11.882,0,0,1-.447,1.958,6.689,6.689,0,0,1-2.592,3.543A7.676,7.676,0,0,1,675.016,623.055Zm0-2.911a4.32,4.32,0,0,0,2.536-.727,3.983,3.983,0,0,0,1.493-2.071,9.053,9.053,0,0,0,.316-1.546,18.93,18.93,0,0,0,.092-2.107,19.149,19.149,0,0,0-.092-2.089,9.088,9.088,0,0,0-.316-1.529,3.964,3.964,0,0,0-1.493-2.071,4.785,4.785,0,0,0-5.071,0,3.968,3.968,0,0,0-1.493,2.071,8.812,8.812,0,0,0-.316,1.529,18.414,18.414,0,0,0-.092,2.089,18.913,18.913,0,0,0,.092,2.107,9.006,9.006,0,0,0,.316,1.546,3.963,3.963,0,0,0,1.493,2.071A4.32,4.32,0,0,0,675.016,620.144Z" transform="translate(-550.058 -597.287)" fill="#94ce2e"/>
      <path id="Path_183888" data-name="Path 183888" d="M733.582,622.644a.33.33,0,0,1-.372-.372V605.154a.33.33,0,0,1,.372-.372h2.387a.33.33,0,0,1,.372.372v1.826h.036a4.785,4.785,0,0,1,1.77-1.883,5.527,5.527,0,0,1,2.965-.727,5.794,5.794,0,0,1,2.032.355,4.7,4.7,0,0,1,1.621.989.368.368,0,0,1,.074.521l-1.38,1.826a.329.329,0,0,1-.521.075,5.733,5.733,0,0,0-1.3-.635,4.578,4.578,0,0,0-1.454-.223,3.208,3.208,0,0,0-2.947,1.436,7.085,7.085,0,0,0-.894,3.784v9.77a.33.33,0,0,1-.372.372h-2.384Z" transform="translate(-596.281 -597.288)" fill="#94ce2e"/>
      <path id="Path_183889" data-name="Path 183889" d="M785.088,623.048a11.476,11.476,0,0,1-2.422-.241,10.992,10.992,0,0,1-2.032-.635,11.188,11.188,0,0,1-2.929-1.809.327.327,0,0,1,0-.521l1.529-1.642a.327.327,0,0,1,.521,0,9.057,9.057,0,0,0,2.443,1.454,7.957,7.957,0,0,0,3.078.6,4.7,4.7,0,0,0,2.947-.766,2.383,2.383,0,0,0,.968-1.958,2.111,2.111,0,0,0-.691-1.66,5.251,5.251,0,0,0-2.777-.84l-1.9-.188a6.758,6.758,0,0,1-3.99-1.567,4.538,4.538,0,0,1-1.341-3.468,4.912,4.912,0,0,1,1.734-4.008,7.489,7.489,0,0,1,4.9-1.436,10.927,10.927,0,0,1,3.6.56,9.6,9.6,0,0,1,2.741,1.418c.2.125.224.3.074.521l-1.269,1.6a.363.363,0,0,1-.521.075,9.894,9.894,0,0,0-2.145-1.007,8.067,8.067,0,0,0-2.667-.447,3.97,3.97,0,0,0-2.536.691,2.171,2.171,0,0,0-.858,1.77,1.974,1.974,0,0,0,.748,1.66,5.648,5.648,0,0,0,2.768.766l1.871.188a6.505,6.505,0,0,1,4.058,1.567,4.645,4.645,0,0,1,1.329,3.468,5.336,5.336,0,0,1-1.865,4.252A8.018,8.018,0,0,1,785.088,623.048Z" transform="translate(-627.427 -597.28)" fill="#94ce2e"/>
    </g>
  </g>
</svg>
