<svg xmlns="http://www.w3.org/2000/svg" width="222.558" height="221.64" viewBox="0 0 222.558 221.64">
  <path id="Path_185469" data-name="Path 185469" d="M403.486,250.942c-16.365-44.585-58.64-72.216-103.83-72.387A112.285,112.285,0,0,0,187.69,278.682h1.581a109.8,109.8,0,0,1,13.761-42.694,12.608,12.608,0,0,0-.139,1.689,16.014,16.014,0,0,0,3.192,9.252c0,.015,0,.031-.015.031-5.672,9.1-9.841,20.565-12.305,31.723h1.147c2.418-10.833,6.462-21.944,11.9-30.762h0a39.589,39.589,0,0,0,9.763,8.43V255a37.519,37.519,0,0,1-9.128-8.1c5.92-9.422,12.413-18.3,20.24-25.8a122.884,122.884,0,0,1,18.456-14.505c3.022,4.138,8.678,6.834,13.451,8.632-2.216,2.51-4.324,5.083-6.308,7.686h0a156.269,156.269,0,0,0-10.166,15.125h1.286a158.764,158.764,0,0,1,9.779-14.459q3.069-4.045,6.54-7.935c.93.341,1.828.651,2.65.93a104.485,104.485,0,0,0,21.541,4.479c-1.674,5.579-3.146,11.235-4.494,16.984h1.162c1.333-5.7,2.805-11.328,4.463-16.861,4.278.419,8.6.62,12.894.652,5.021.015,10.027-.233,14.939-.682q2.347,8.322,4.168,16.892H319.2q-1.836-8.624-4.184-17c1.039-.108,2.061-.2,3.084-.31,6.555-.775,14.381-1.968,21.448-4.556,2.185,2.526,4.261,5.114,6.2,7.749h0a162.736,162.736,0,0,1,21.231,39.393c-11.22,4.122-23.215,6.447-35.473,7.981v1.132c12.352-1.549,24.485-3.89,35.86-8.074a166.351,166.351,0,0,1,7.113,25.384,144.544,144.544,0,0,1,2.728,28.623c-14.629,5.284-30,8.167-45.7,10.011V329.5c15.652-1.828,31.01-4.7,45.67-9.949a109.216,109.216,0,0,1-7.237,38.479,67.425,67.425,0,0,1-3.8,7.981,168.718,168.718,0,0,1-22.238,5.7c-6.416,1.271-12.971,2.2-19.6,2.867.031-.14.062-.31.093-.45h0c.93-4.385,1.642-8.864,2.185-13.4h-1.132c-.542,4.463-1.24,8.864-2.154,13.188-.062.248-.108.527-.17.79-7.733.713-15.559,1.054-23.432,1.039h0c-1.379,0-2.773-.031-4.153-.047q-10.855-.209-21.448-1.286c-.046-.233-.092-.465-.124-.682-.821-4.247-1.441-8.6-1.906-13h-1.132c.465,4.463,1.1,8.9,1.938,13.219.015.108.046.233.062.341A205.964,205.964,0,0,1,248.1,370.13c-5.1-1.194-11-2.65-16.861-4.649a67.364,67.364,0,0,1-3.627-7.965h0a103.81,103.81,0,0,1-6.121-27.8h-1.132a104.971,104.971,0,0,0,6.184,28.189,72.059,72.059,0,0,0,3.146,7.036c-8.678-3.145-17.046-7.547-22.238-14.195h0a110.413,110.413,0,0,1-10.275-21.03h-2.588c16.861,43.454,58.579,70.311,103.117,70.481A112.2,112.2,0,0,0,410.243,289.762a109.147,109.147,0,0,0-6.757-38.82Zm5.191,38.82h0c-.015,2.247-.124,4.494-.294,6.726a15.617,15.617,0,0,1-.93,1.736c-.031-10.259-2.138-26.547-14.009-50.536v-.015a16.285,16.285,0,0,0,3.131-8.555,108.629,108.629,0,0,1,12.1,50.644Zm-22.625,65.506h0A60.375,60.375,0,0,1,367.7,365.449a68.767,68.767,0,0,0,3.269-7.02,110.741,110.741,0,0,0,7.33-39.3c.666-.247,1.317-.5,1.984-.743,8.88-3.425,19.7-8.291,25.973-16.551-.077,1.859-.2,3.455-.31,4.8a89.272,89.272,0,0,1-2.4,15.079,110.483,110.483,0,0,1-17.5,33.551ZM255.707,390.121h0a59.494,59.494,0,0,1-23.648-23.183c5.517,1.813,11.018,3.161,15.791,4.277a206.385,206.385,0,0,0,25.291,4.214,75.082,75.082,0,0,0,3.72,13.653,21.841,21.841,0,0,0,5.207,8.105c-3.425-.419-6.788-1.023-10.1-1.72a112.068,112.068,0,0,1-16.257-5.347ZM221.179,212.246h0a95.135,95.135,0,0,1,23.664-15.807,9.356,9.356,0,0,0-.868,3.813,9.157,9.157,0,0,0,.124,1.689,10.744,10.744,0,0,0,1.426,3.719,124.2,124.2,0,0,0-18.612,14.629c-7.826,7.485-14.288,16.3-20.177,25.632a14.231,14.231,0,0,1-2.728-8.245,13.558,13.558,0,0,1,1.255-5.424,110.82,110.82,0,0,1,15.915-20.006ZM406.322,299.99h0l-.015.047-.078-.062c-5.827,8.647-17.077,13.823-26.345,17.372-.511.2-1.039.388-1.565.589a144.783,144.783,0,0,0-2.743-28.422,166.9,166.9,0,0,0-7.175-25.555c8.632-3.254,18.442-7.733,24.285-15.28,11.948,24.33,13.73,40.525,13.636,50.5,0,.233,0,.45-.015.666l-.047.093ZM304.585,187.931h0a2.57,2.57,0,0,0-.357-.17c1.751.233,3.5.527,5.207.868a125.974,125.974,0,0,1,43.531,17.62c-3.3,3.874-7.934,6.617-13.079,8.6-9.7-11.111-21.634-20.89-35.3-26.918Zm63.444,74.975h0a163.8,163.8,0,0,0-21.371-39.657q-2.835-3.813-6-7.517a32.629,32.629,0,0,0,13.25-8.864,120.325,120.325,0,0,1,18.349,14.753c7.749,7.594,14.877,16.1,19.867,25.942-5.533,7.5-15.358,12.057-24.1,15.342Zm-14.382-57.54h0a126.955,126.955,0,0,0-43.98-17.822c-1.41-.279-2.82-.527-4.261-.743,2-.155,4-.233,6.028-.217a106.166,106.166,0,0,1,23.679,2.991,99.914,99.914,0,0,1,18.4,6.307,7.977,7.977,0,0,1,1.6,4.788,9.412,9.412,0,0,1-1.457,4.7Zm.589-10.383h0c-.062-.093-.155-.171-.217-.279.574.341,1.147.682,1.7,1.023-.5-.248-.976-.511-1.488-.743Zm-2.464-1.116h0a101.25,101.25,0,0,0-16.38-5.377,108.327,108.327,0,0,0-23.959-3.038c-2.17,0-4.323.078-6.463.264a54.444,54.444,0,0,1,16.366-2.387c1.767,0,3.518.093,5.269.263a111.153,111.153,0,0,1,24.02,9.252c.4.34.791.681,1.147,1.023Zm-49.9-8.26h0a16.463,16.463,0,0,1,6.153-5.129,112.757,112.757,0,0,1,12.568,1.736,54.517,54.517,0,0,0-18.72,3.394Zm2.263,3.332h0c13.343,5.9,25.043,15.451,34.62,26.314a95.571,95.571,0,0,1-20.781,4.355c-1.085.124-2.17.217-3.27.326-1.767-6.184-3.765-12.289-6.106-18.318a66.045,66.045,0,0,0-6.788-13.668c.775.31,1.55.667,2.325.992Zm3.409,13.1h0c2.293,5.919,4.277,11.917,6.028,18.023-4.82.434-9.7.651-14.614.636-4.2-.015-8.415-.217-12.584-.62,1.875-6.121,3.968-12.149,6.385-18.1,1.938-4.742,4.355-10.1,7.517-14.211,3.115,4.122,5.424,9.515,7.268,14.273Zm-15.823-.465h0c-2.464,6.044-4.587,12.165-6.478,18.395A102.34,102.34,0,0,1,263.75,215.5c-.7-.233-1.442-.481-2.216-.744,9.717-10.708,21.526-20.085,34.884-25.849.775-.325,1.549-.666,2.34-.976a66.258,66.258,0,0,0-7.036,13.637Zm-12.4-19.511h-.558a110.246,110.246,0,0,1,13.762-1.705,16.013,16.013,0,0,1,6.2,5.238,54.321,54.321,0,0,0-19.4-3.533Zm16.644,5.842h0c-13.668,5.9-25.709,15.5-35.581,26.438C255.63,212.555,250,209.859,247.075,206a127.617,127.617,0,0,1,44.043-17.434c1.72-.326,3.472-.62,5.223-.837a4,4,0,0,0-.372.171Zm-5.052-.434h0a128.443,128.443,0,0,0-44.461,17.6,9.042,9.042,0,0,1-1.24-3.316,8.556,8.556,0,0,1-.124-1.5,8.2,8.2,0,0,1,1.426-4.588,100.647,100.647,0,0,1,18.891-6.338,107.153,107.153,0,0,1,23.757-2.837c2.015.016,4.029.109,6.013.264-1.441.2-2.867.449-4.262.713Zm-45.143,7.314h0a100,100,0,0,0-9.469,4.943,108.267,108.267,0,0,1,10.755-6.508,11.09,11.09,0,0,0-1.286,1.565ZM312.8,397.419h0a139.159,139.159,0,0,1-15.064.76,130.422,130.422,0,0,1-13.5-.729c-2.728-1.7-4.789-4.99-6.338-8.787a74.022,74.022,0,0,1-3.58-13.111q10.461,1.047,21.184,1.256,2.092.046,4.184.046c7.78.031,15.528-.31,23.183-1.007a73.609,73.609,0,0,1-3.781,12.971c-1.581,3.688-3.627,6.865-6.292,8.6Zm95.369-98.25h0c-.3,2.96-.7,5.9-1.224,8.818.031-.419.093-.853.14-1.271.108-1.72.294-3.889.356-6.493.249-.341.5-.7.729-1.053Zm-12.754-62.252h0a10.841,10.841,0,0,1,.077,1.395,14.832,14.832,0,0,1-2.635,8.213c-5.052-9.763-12.15-18.209-19.789-25.709a121.909,121.909,0,0,0-18.472-14.846,10.553,10.553,0,0,0,1.642-5.3,9.031,9.031,0,0,0-.961-3.967,95.1,95.1,0,0,1,11.282,6.385,108.082,108.082,0,0,1,28.856,33.83Zm-89.527-56.58h0a21.015,21.015,0,0,0-5.6,5.5,20.247,20.247,0,0,0-5.625-5.626c1.658-.062,3.316-.093,4.959-.093,2.108,0,4.184.093,6.261.217Zm-34.667,3.41h0a56.216,56.216,0,0,1,8.09-.573,54.26,54.26,0,0,1,16.334,2.51c-2.138-.2-4.308-.31-6.477-.31a108.153,108.153,0,0,0-24.005,2.866,100.481,100.481,0,0,0-17.139,5.549,21.98,21.98,0,0,1,3.5-2.837c3.1-1.472,6.261-2.821,9.531-4.014,3.379-1.239,6.772-2.293,10.166-3.192Zm-59.787,172.59h0c5.347,4.479,12.134,7.671,19.015,10.058a61.419,61.419,0,0,0,17.481,20.115,108.782,108.782,0,0,1-36.5-30.173Zm124.875,35.488h0a112.661,112.661,0,0,1-16.613,4.649c-1.581.248-3.161.5-4.757.7a22.815,22.815,0,0,0,5.175-7.919,75.589,75.589,0,0,0,3.937-13.528c6.788-.666,13.5-1.628,20.069-2.914a179.416,179.416,0,0,0,21.169-5.315A60.753,60.753,0,0,1,345.419,388c-2.96,1.395-6,2.681-9.112,3.828Zm15.605-7.129h0a62.948,62.948,0,0,0,15.017-17.774,68.27,68.27,0,0,0,16.272-8.1A110.087,110.087,0,0,1,351.912,384.7Z" transform="translate(-187.69 -178.555)" fill="#94ce2e"/>
</svg>
