<svg xmlns="http://www.w3.org/2000/svg" width="32" height="32" viewBox="0 0 32 32">
  <g id="Group_918" data-name="Group 918" transform="translate(-98.485 -480)">
    <path id="Path_185599" data-name="Path 185599" d="M16,0a16,16,0,0,1,7.086,30.349A15.626,15.626,0,0,1,16,32,16,16,0,0,1,16,0Z" transform="translate(98.485 480)" fill="#e4e5e8"/>
    <path id="icons8_user_1" d="M11.121,3a3.609,3.609,0,1,0,3.609,3.609A3.609,3.609,0,0,0,11.121,3Zm0,9.926C8.411,12.926,3,14.287,3,16.987V18.34a.9.9,0,0,0,.9.9H18.34a.9.9,0,0,0,.9-.9V16.987C19.243,14.287,13.832,12.926,11.121,12.926Z" transform="translate(103.121 486.179)" fill="#fff"/>
  </g>
</svg>
