<svg xmlns="http://www.w3.org/2000/svg" width="20.208" height="12" viewBox="0 0 20.208 12">
  <path id="icons8_attach" d="M4.364,0C1.967,0,0,1.656,0,3.674V15.156c0,2.779,2.7,5.052,6,5.052s6-2.273,6-5.052V4.593H9.818V15.156c0,1.786-1.7,3.215-3.818,3.215s-3.818-1.429-3.818-3.215V3.674A2.016,2.016,0,0,1,4.364,1.837,2.016,2.016,0,0,1,6.545,3.674v9.645A.494.494,0,0,1,6,13.778a.494.494,0,0,1-.545-.459V4.593H3.273v8.726A2.555,2.555,0,0,0,6,15.615a2.555,2.555,0,0,0,2.727-2.3V3.674C8.727,1.656,6.761,0,4.364,0Z" transform="translate(20.208) rotate(90)" fill="#929fb2"/>
</svg>
