<svg xmlns="http://www.w3.org/2000/svg" width="26.169" height="25" viewBox="0 0 26.169 25">
  <path id="icons8_Shopping_Cart"
      d="M10.126,26.192a2.407,2.407,0,0,0,0,4.808,2.407,2.407,0,0,0,0-4.808Zm11.864,0a2.407,2.407,0,1,0,2.281,2.4A2.345,2.345,0,0,0,21.99,26.192ZM6.242,9.892,5.787,7.853A2.309,2.309,0,0,0,3.567,6H1l.456,1.923h2.11a.461.461,0,0,1,.444.371L7.247,22.787a1.84,1.84,0,0,0,1.776,1.482H23.5a1.851,1.851,0,0,0,1.8-1.593l1.868-11.314Z" transform="translate(-1 -6)" fill="#111"/>
</svg>
