<svg xmlns="http://www.w3.org/2000/svg" width="26" height="25" viewBox="0 0 26 25">
  <path id="icons8_chat_2" d="M13,3C6.925,3,2,7.477,2,13a9.538,9.538,0,0,0,3.4,7.205,5.559,5.559,0,0,1-2.072,2.826l0,0a.5.5,0,0,0,.279.955,7.975,7.975,0,0,0,4.912-1.873,11.7,11.7,0,0,0,1.957.609A8.156,8.156,0,0,1,10,20c0-4.963,4.486-9,10-9a10.894,10.894,0,0,1,3.9.713C23.2,6.8,18.594,3,13,3Zm7,10c-4.418,0-8,3.134-8,7s3.582,7,8,7a9.007,9.007,0,0,0,2.984-.51,7.724,7.724,0,0,0,4.41,1.5.5.5,0,0,0,.277-.957,5.835,5.835,0,0,1-1.854-2.238A6.558,6.558,0,0,0,28,20C28,16.134,24.418,13,20,13Z" transform="translate(-2 -3)" fill="#111"/>
</svg>
