<svg id="Group_3" data-name="Group 3" xmlns="http://www.w3.org/2000/svg" width="18.381" height="13.219" viewBox="0 0 18.381 13.219">
    <g id="Group_4" data-name="Group 4" transform="translate(-1.006 -2.711)">
        <path id="Path_1" data-name="Path 1" d="M20.777,8.849H4.065c-.338,0-.389.159-.113.355L11.975,14.9a.621.621,0,0,0,.893,0L20.89,9.2C21.166,9.008,21.115,8.849,20.777,8.849Z" transform="translate(-2.224 -6.138)" fill="rgba(148,144,144,0.61)"/>
        <path id="Path_2" data-name="Path 2" d="M20.381,13.2V23.7a1.149,1.149,0,0,1-1.149,1.149H3.149A1.149,1.149,0,0,1,2,23.7V13.2c0-.338.223-.452.5-.255l8.246,5.919a.62.62,0,0,0,.893,0l8.246-5.919C20.158,12.751,20.381,12.865,20.381,13.2Z" transform="translate(-0.994 -8.914)" fill="rgba(148,144,144,0.61)"/>
    </g>
</svg>
