<svg xmlns="http://www.w3.org/2000/svg" width="25" height="22" viewBox="0 0 25 22">
  <path id="icons8_home" d="M13.5,2a1.126,1.126,0,0,0-.808.344L1.231,12.534A.583.583,0,0,0,1,13a.574.574,0,0,0,.568.579H4.409v9.263A1.148,1.148,0,0,0,5.545,24h4.545a1.148,1.148,0,0,0,1.136-1.158V15.895h4.545v6.947A1.148,1.148,0,0,0,16.909,24h4.545a1.148,1.148,0,0,0,1.136-1.158V13.579h2.841A.574.574,0,0,0,26,13a.583.583,0,0,0-.231-.466L14.315,2.351l-.007-.007A1.126,1.126,0,0,0,13.5,2Z" transform="translate(-1 -2)" fill="#929fb2"/>
</svg>
