<svg xmlns="http://www.w3.org/2000/svg" width="36" height="36" viewBox="0 0 36 36">
  <g id="Group_33" data-name="Group 33" transform="translate(-260 -332)">
    <rect id="Rectangle_15" data-name="Rectangle 15" width="36" height="36" rx="18" transform="translate(260 332)" fill="#f5f5f5"/>
    <g id="round-favorite_border-24px" transform="translate(267.265 339.265)">
      <path id="Path_931" data-name="Path 931" d="M0,0H20.924V20.924H0Z" fill="none"/>
      <path id="Path_932" data-name="Path 932" d="M17.4,3.863a5.052,5.052,0,0,0-6.678.959A5.043,5.043,0,0,0,4.04,3.863,4.771,4.771,0,0,0,2,7.6C1.877,10.986,4.877,13.7,9.454,17.856l.087.078a1.74,1.74,0,0,0,2.345-.009l.1-.087c4.577-4.15,7.568-6.861,7.454-10.244A4.768,4.768,0,0,0,17.4,3.863ZM10.805,16.557l-.087.087-.087-.087C6.481,12.8,3.743,10.315,3.743,7.8A2.98,2.98,0,0,1,6.795,4.744,3.408,3.408,0,0,1,9.907,6.8h1.63a3.387,3.387,0,0,1,3.1-2.058A2.98,2.98,0,0,1,17.693,7.8C17.693,10.315,14.955,12.8,10.805,16.557Z" transform="translate(-0.256 0.827)" fill="#9fa2b1"/>
    </g>
  </g>
</svg>
