<svg id="Group_37293" data-name="Group 37293" xmlns="http://www.w3.org/2000/svg" width="24" height="24" viewBox="0 0 24 24">
  <g id="Group_33848" data-name="Group 33848">
    <rect id="Rectangle_3488" data-name="Rectangle 3488" width="24" height="24" fill="#274268" opacity="0"/>
    <path id="icons8_notification_3" d="M12,2a1.5,1.5,0,0,0-1.5,1.5v.7A6,6,0,0,0,6,10v6L4.465,17.156h0A1,1,0,0,0,5,19H19a1,1,0,0,0,.537-1.844L18,16V10a6,6,0,0,0-4.5-5.8V3.5A1.5,1.5,0,0,0,12,2ZM10,20a2,2,0,0,0,4,0Z" fill="none" stroke="#274268" stroke-width="2"/>
  </g>
</svg>
