<svg xmlns="http://www.w3.org/2000/svg" width="16.959" height="15.748" viewBox="0 0 16.959 15.748">
  <path id="d81dc2eba367bf05680a97af354aeddc" d="M15.542,2.417A4.833,4.833,0,0,0,7.28,5.846a5.426,5.426,0,0,0,.109,1.078L0,14.325v1.211l1.211,1.211H3.634l1.211-1.211V14.325H6.057V13.114H7.268V11.9H9.691l1.32-1.345a4.165,4.165,0,0,0,1.1.133,4.848,4.848,0,0,0,3.428-8.274ZM13.325,6.306A1.672,1.672,0,1,1,15,4.634,1.66,1.66,0,0,1,13.325,6.306Z" transform="translate(0 -1)" fill="rgba(148,144,144,0.61)" fill-rule="evenodd"/>
</svg>
